<?xml version="1.0" standalone="no"?>
<!DOCTYPE svg PUBLIC "-//W3C//DTD SVG 20010904//EN"
 "http://www.w3.org/TR/2001/REC-SVG-20010904/DTD/svg10.dtd">
<svg version="1.0" xmlns="http://www.w3.org/2000/svg"
 width="180.000000pt" height="180.000000pt" viewBox="0 0 180.000000 180.000000"
 preserveAspectRatio="xMidYMid meet">

<g transform="translate(0.000000,180.000000) scale(0.100000,-0.100000)"
fill="black" stroke="none">
<path d="M265 1024 c-33 -20 -63 -41 -68 -48 -4 -6 -6 -60 -5 -121 l3 -110 88
-3 88 -3 85 52 86 51 52 -51 52 -51 79 0 80 0 -78 78 c-42 42 -77 80 -77 84 0
6 202 128 213 128 4 0 8 -64 9 -142 l3 -143 122 -3 123 -3 167 109 168 109 5
-113 5 -113 70 43 70 43 0 119 0 119 -66 3 -66 3 -217 -141 c-119 -77 -223
-143 -231 -146 -13 -5 -15 15 -15 140 l0 146 -128 0 -128 0 -204 -124 -205
-125 -3 125 c-1 68 -6 124 -10 124 -4 0 -34 -16 -67 -36z"/>
</g>
</svg>
