<svg aria-hidden="true" class="logo__svg svg">
            <use xlink:href="#symbol-logo"></use>
            <symbol id="symbol-logo" viewBox="0 0 120.1 28.3" role="img">
              <desc>Kia New Logo</desc>
              <path d="M69.7,25.1c0,0.2,0.1,0.3,0.2,0.3c0.1,0,0.2,0,0.3-0.1L107.6,1c0.6-0.4,1.4-0.7,2.2-0.7h8.2 c1.1-0.1,2,0.8,2.1,1.9c0,0.1,0,0.2,0,0.2v15.7c0,1.9-0.4,3-2.1,4l-10,6c-0.1,0.1-0.2,0.1-0.3,0.1c-0.1,0-0.2-0.1-0.2-0.4V9.5 c0-0.2-0.1-0.3-0.2-0.3c-0.1,0-0.2,0-0.3,0.1L79.6,27.1c-0.6,0.4-1.4,0.6-2.1,0.6H59.3c-1.1,0.1-2-0.8-2.1-1.9c0-0.1,0-0.2,0-0.2 V2.9c0-0.1-0.1-0.3-0.2-0.3c-0.1,0-0.2,0-0.3,0.1l-18,10.9c-0.1,0-0.2,0.2-0.2,0.3c0,0.1,0.1,0.2,0.2,0.3l12.9,12.9 c0.1,0.1,0.2,0.3,0.3,0.4c0,0.2-0.2,0.2-0.4,0.2H39.7c-0.8,0.1-1.5-0.1-2.1-0.6l-7.8-7.8c-0.1-0.1-0.1-0.1-0.2-0.1 c-0.1,0-0.2,0-0.2,0.1l-13.1,7.9c-0.6,0.4-1.4,0.6-2.1,0.6h-12c-1.1,0.1-2-0.8-2.1-1.9c0-0.1,0-0.2,0-0.2V10.2 c-0.2-1.6,0.6-3.2,2.1-4l10-6C12.2,0,12.3,0,12.4,0c0.1,0,0.2,0.2,0.2,0.5v20.7c0,0.2,0.1,0.3,0.2,0.3c0.1,0,0.2-0.1,0.3-0.1 L47.1,0.9c0.7-0.4,1.4-0.7,2.2-0.6h18.2c1.1-0.1,2,0.8,2.1,1.9c0,0.1,0,0.2,0,0.2V25.1L69.7,25.1z"></path>
              </symbol></svg>